Coordinates
version=1
nRows=10
nColumns=22
inDegrees=yes

Units are S.I. units (second, meters, Newtons, ...)
If the header above contains a line with 'inDegrees', this indicates whether rotational values are in degrees (yes) or radians (no).

endheader
time	pelvis_tilt	pelvis_list	pelvis_rotation	pelvis_tx	pelvis_ty	pelvis_tz	hip_flexion_r	hip_adduction_r	hip_rotation_r	knee_angle_r	ankle_angle_r	subtalar_angle_r	hip_flexion_l	hip_adduction_l	hip_rotation_l	knee_angle_l	ankle_angle_l	subtalar_angle_l	lumbar_extension	lumbar_bending	lumbar_rotation
      0.01000000	     -6.77516684	      1.34522811	   -169.45411928	      0.07228265	      0.95433704	      1.21150450	     -8.80995393	      4.42122552	     -8.25157020	     -7.75487776	     10.58039395	      1.55299485	     -3.83727748	     -4.46482156	    -13.34656324	    -15.16422245	     21.07785378	     -6.13369549	    -11.57256476	      2.59657265	    -10.23596403
      0.02000000	     -6.78568488	      1.34128891	   -169.44348192	      0.07233214	      0.95430817	      1.21151414	     -8.79841420	      4.41215786	     -8.27028098	     -7.79967084	     10.67630860	      1.62552352	     -3.81970057	     -4.47118010	    -13.34372956	    -15.21596110	     21.13437297	     -6.13998216	    -11.59553662	      2.60281888	    -10.23718643
      0.03000000	     -6.78603109	      1.35040263	   -169.43248235	      0.07239605	      0.95425533	      1.21152240	     -8.76822454	      4.41345579	     -8.26565271	     -7.85201431	     10.74776114	      1.71587878	     -3.76666370	     -4.49286835	    -13.32658970	    -15.31011140	     21.19349071	     -6.15998517	    -11.60808720	      2.62268567	    -10.23547036
      0.04000000	     -6.79268779	      1.36408857	   -169.41692102	      0.07247988	      0.95419405	      1.21153006	     -8.73272964	      4.41890463	     -8.26440350	     -7.92556434	     10.83168820	      1.80270061	     -3.69065830	     -4.52569403	    -13.29094744	    -15.45791462	     21.26892759	     -6.18696997	    -11.63510392	      2.65010118	    -10.23824514
      0.05000000	     -6.76241730	      1.38710275	   -169.39144606	      0.07259769	      0.95405859	      1.21155960	     -8.62660641	      4.42128088	     -8.28557287	     -8.05369776	     10.91930776	      1.96325916	     -3.52738279	     -4.56650011	    -13.22593810	    -15.68736989	     21.39054241	     -6.25856219	    -11.62362999	      2.68360929	    -10.24613998
      0.06000000	     -6.75579972	      1.42915748	   -169.35827260	      0.07272619	      0.95393306	      1.21159715	     -8.52843995	      4.44764093	     -8.30880089	     -8.21009821	     11.05025685	      2.11112834	     -3.34810443	     -4.63570355	    -13.12213350	    -15.98660694	     21.50350431	     -6.35826536	    -11.64534819	      2.74645267	    -10.26169859
      0.07000000	     -6.76524856	      1.46972114	   -169.31914275	      0.07284976	      0.95380049	      1.21165368	     -8.43096846	      4.47251341	     -8.34960513	     -8.40225437	     11.21224833	      2.22761860	     -3.14284807	     -4.70946092	    -12.99051653	    -16.36862223	     21.67735482	     -6.46783266	    -11.69189109	      2.81063822	    -10.28454322
      0.08000000	     -6.77224914	      1.53030537	   -169.27473088	      0.07297246	      0.95363330	      1.21172778	     -8.30253914	      4.51622116	     -8.39293964	     -8.64392585	     11.40145015	      2.34587083	     -2.88634862	     -4.80328778	    -12.80605118	    -16.83204414	     21.85100719	     -6.63730455	    -11.73911302	      2.90101358	    -10.31139221
      0.09000000	     -6.77323192	      1.60850482	   -169.23287148	      0.07308203	      0.95342667	      1.21181487	     -8.13698054	      4.57447360	     -8.43353401	     -8.94045538	     11.60530797	      2.45444503	     -2.58502857	     -4.90629266	    -12.55488145	    -17.35933471	     22.03503885	     -6.88794872	    -11.78284671	      3.01039427	    -10.33088332
      0.10000000	     -6.74961664	      1.70399539	   -169.20283250	      0.07316883	      0.95316008	      1.21192726	     -7.90822179	      4.64131239	     -8.45635339	     -9.30445646	     11.79353279	      2.53916566	     -2.23926548	     -5.00246850	    -12.21250661	    -17.91217464	     22.21023536	     -7.28827797	    -11.80037621	      3.13805805	    -10.32360585
